<?xml version="1.0" encoding="utf-8" standalone="no"?>
<!DOCTYPE svg PUBLIC "-//W3C//DTD SVG 1.1//EN"
  "http://www.w3.org/Graphics/SVG/1.1/DTD/svg11.dtd">
<!-- Created with matplotlib (http://matplotlib.org/) -->
<svg height="288pt" version="1.1" viewBox="0 0 432 288" width="432pt" xmlns="http://www.w3.org/2000/svg" xmlns:xlink="http://www.w3.org/1999/xlink">
 <defs>
  <style type="text/css">
*{stroke-linecap:butt;stroke-linejoin:round;}
  </style>
 </defs>
 <g id="figure_1">
  <g id="patch_1">
   <path d="M 0 288 
L 432 288 
L 432 0 
L 0 0 
z
" style="fill:#ffffff;"/>
  </g>
  <g id="axes_1">
   <g id="patch_2">
    <path d="M 54 230.4 
L 388.8 230.4 
L 388.8 34.56 
L 54 34.56 
z
" style="fill:#ffffff;"/>
   </g>
   <g id="matplotlib.axis_1">
    <g id="xtick_1">
     <g id="line2d_1">
      <defs>
       <path d="M 0 0 
L 0 3.5 
" id="mf4f7986d86" style="stroke:#000000;stroke-width:0.8;"/>
      </defs>
      <g>
       <use style="stroke:#000000;stroke-width:0.8;" x="84.248485" xlink:href="#mf4f7986d86" y="230.4"/>
      </g>
     </g>
     <g id="text_1">
      <!-- 2017-06-26 -->
      <defs>
       <path d="M 19.1875 8.296875 
L 53.609375 8.296875 
L 53.609375 0 
L 7.328125 0 
L 7.328125 8.296875 
Q 12.9375 14.109375 22.625 23.890625 
Q 32.328125 33.6875 34.8125 36.53125 
Q 39.546875 41.84375 41.421875 45.53125 
Q 43.3125 49.21875 43.3125 52.78125 
Q 43.3125 58.59375 39.234375 62.25 
Q 35.15625 65.921875 28.609375 65.921875 
Q 23.96875 65.921875 18.8125 64.3125 
Q 13.671875 62.703125 7.8125 59.421875 
L 7.8125 69.390625 
Q 13.765625 71.78125 18.9375 73 
Q 24.125 74.21875 28.421875 74.21875 
Q 39.75 74.21875 46.484375 68.546875 
Q 53.21875 62.890625 53.21875 53.421875 
Q 53.21875 48.921875 51.53125 44.890625 
Q 49.859375 40.875 45.40625 35.40625 
Q 44.1875 33.984375 37.640625 27.21875 
Q 31.109375 20.453125 19.1875 8.296875 
z
" id="DejaVuSans-32"/>
       <path d="M 31.78125 66.40625 
Q 24.171875 66.40625 20.328125 58.90625 
Q 16.5 51.421875 16.5 36.375 
Q 16.5 21.390625 20.328125 13.890625 
Q 24.171875 6.390625 31.78125 6.390625 
Q 39.453125 6.390625 43.28125 13.890625 
Q 47.125 21.390625 47.125 36.375 
Q 47.125 51.421875 43.28125 58.90625 
Q 39.453125 66.40625 31.78125 66.40625 
z
M 31.78125 74.21875 
Q 44.046875 74.21875 50.515625 64.515625 
Q 56.984375 54.828125 56.984375 36.375 
Q 56.984375 17.96875 50.515625 8.265625 
Q 44.046875 -1.421875 31.78125 -1.421875 
Q 19.53125 -1.421875 13.0625 8.265625 
Q 6.59375 17.96875 6.59375 36.375 
Q 6.59375 54.828125 13.0625 64.515625 
Q 19.53125 74.21875 31.78125 74.21875 
z
" id="DejaVuSans-30"/>
       <path d="M 12.40625 8.296875 
L 28.515625 8.296875 
L 28.515625 63.921875 
L 10.984375 60.40625 
L 10.984375 69.390625 
L 28.421875 72.90625 
L 38.28125 72.90625 
L 38.28125 8.296875 
L 54.390625 8.296875 
L 54.390625 0 
L 12.40625 0 
z
" id="DejaVuSans-31"/>
       <path d="M 8.203125 72.90625 
L 55.078125 72.90625 
L 55.078125 68.703125 
L 28.609375 0 
L 18.3125 0 
L 43.21875 64.59375 
L 8.203125 64.59375 
z
" id="DejaVuSans-37"/>
       <path d="M 4.890625 31.390625 
L 31.203125 31.390625 
L 31.203125 23.390625 
L 4.890625 23.390625 
z
" id="DejaVuSans-2d"/>
       <path d="M 33.015625 40.375 
Q 26.375 40.375 22.484375 35.828125 
Q 18.609375 31.296875 18.609375 23.390625 
Q 18.609375 15.53125 22.484375 10.953125 
Q 26.375 6.390625 33.015625 6.390625 
Q 39.65625 6.390625 43.53125 10.953125 
Q 47.40625 15.53125 47.40625 23.390625 
Q 47.40625 31.296875 43.53125 35.828125 
Q 39.65625 40.375 33.015625 40.375 
z
M 52.59375 71.296875 
L 52.59375 62.3125 
Q 48.875 64.0625 45.09375 64.984375 
Q 41.3125 65.921875 37.59375 65.921875 
Q 27.828125 65.921875 22.671875 59.328125 
Q 17.53125 52.734375 16.796875 39.40625 
Q 19.671875 43.65625 24.015625 45.921875 
Q 28.375 48.1875 33.59375 48.1875 
Q 44.578125 48.1875 50.953125 41.515625 
Q 57.328125 34.859375 57.328125 23.390625 
Q 57.328125 12.15625 50.6875 5.359375 
Q 44.046875 -1.421875 33.015625 -1.421875 
Q 20.359375 -1.421875 13.671875 8.265625 
Q 6.984375 17.96875 6.984375 36.375 
Q 6.984375 53.65625 15.1875 63.9375 
Q 23.390625 74.21875 37.203125 74.21875 
Q 40.921875 74.21875 44.703125 73.484375 
Q 48.484375 72.75 52.59375 71.296875 
z
" id="DejaVuSans-36"/>
      </defs>
      <g transform="translate(32.879033 273.038252)rotate(-30)scale(0.1 -0.1)">
       <use xlink:href="#DejaVuSans-32"/>
       <use x="63.623047" xlink:href="#DejaVuSans-30"/>
       <use x="127.246094" xlink:href="#DejaVuSans-31"/>
       <use x="190.869141" xlink:href="#DejaVuSans-37"/>
       <use x="254.492188" xlink:href="#DejaVuSans-2d"/>
       <use x="290.576172" xlink:href="#DejaVuSans-30"/>
       <use x="354.199219" xlink:href="#DejaVuSans-36"/>
       <use x="417.822266" xlink:href="#DejaVuSans-2d"/>
       <use x="453.90625" xlink:href="#DejaVuSans-32"/>
       <use x="517.529297" xlink:href="#DejaVuSans-36"/>
      </g>
     </g>
    </g>
    <g id="xtick_2">
     <g id="line2d_2">
      <g>
       <use style="stroke:#000000;stroke-width:0.8;" x="136.854545" xlink:href="#mf4f7986d86" y="230.4"/>
      </g>
     </g>
     <g id="text_2">
      <!-- 2017-07-10 -->
      <g transform="translate(85.485094 273.038252)rotate(-30)scale(0.1 -0.1)">
       <use xlink:href="#DejaVuSans-32"/>
       <use x="63.623047" xlink:href="#DejaVuSans-30"/>
       <use x="127.246094" xlink:href="#DejaVuSans-31"/>
       <use x="190.869141" xlink:href="#DejaVuSans-37"/>
       <use x="254.492188" xlink:href="#DejaVuSans-2d"/>
       <use x="290.576172" xlink:href="#DejaVuSans-30"/>
       <use x="354.199219" xlink:href="#DejaVuSans-37"/>
       <use x="417.822266" xlink:href="#DejaVuSans-2d"/>
       <use x="453.90625" xlink:href="#DejaVuSans-31"/>
       <use x="517.529297" xlink:href="#DejaVuSans-30"/>
      </g>
     </g>
    </g>
    <g id="xtick_3">
     <g id="line2d_3">
      <g>
       <use style="stroke:#000000;stroke-width:0.8;" x="189.460606" xlink:href="#mf4f7986d86" y="230.4"/>
      </g>
     </g>
     <g id="text_3">
      <!-- 2017-07-24 -->
      <defs>
       <path d="M 37.796875 64.3125 
L 12.890625 25.390625 
L 37.796875 25.390625 
z
M 35.203125 72.90625 
L 47.609375 72.90625 
L 47.609375 25.390625 
L 58.015625 25.390625 
L 58.015625 17.1875 
L 47.609375 17.1875 
L 47.609375 0 
L 37.796875 0 
L 37.796875 17.1875 
L 4.890625 17.1875 
L 4.890625 26.703125 
z
" id="DejaVuSans-34"/>
      </defs>
      <g transform="translate(138.091155 273.038252)rotate(-30)scale(0.1 -0.1)">
       <use xlink:href="#DejaVuSans-32"/>
       <use x="63.623047" xlink:href="#DejaVuSans-30"/>
       <use x="127.246094" xlink:href="#DejaVuSans-31"/>
       <use x="190.869141" xlink:href="#DejaVuSans-37"/>
       <use x="254.492188" xlink:href="#DejaVuSans-2d"/>
       <use x="290.576172" xlink:href="#DejaVuSans-30"/>
       <use x="354.199219" xlink:href="#DejaVuSans-37"/>
       <use x="417.822266" xlink:href="#DejaVuSans-2d"/>
       <use x="453.90625" xlink:href="#DejaVuSans-32"/>
       <use x="517.529297" xlink:href="#DejaVuSans-34"/>
      </g>
     </g>
    </g>
    <g id="xtick_4">
     <g id="line2d_4">
      <g>
       <use style="stroke:#000000;stroke-width:0.8;" x="242.066667" xlink:href="#mf4f7986d86" y="230.4"/>
      </g>
     </g>
     <g id="text_4">
      <!-- 2017-08-07 -->
      <defs>
       <path d="M 31.78125 34.625 
Q 24.75 34.625 20.71875 30.859375 
Q 16.703125 27.09375 16.703125 20.515625 
Q 16.703125 13.921875 20.71875 10.15625 
Q 24.75 6.390625 31.78125 6.390625 
Q 38.8125 6.390625 42.859375 10.171875 
Q 46.921875 13.96875 46.921875 20.515625 
Q 46.921875 27.09375 42.890625 30.859375 
Q 38.875 34.625 31.78125 34.625 
z
M 21.921875 38.8125 
Q 15.578125 40.375 12.03125 44.71875 
Q 8.5 49.078125 8.5 55.328125 
Q 8.5 64.0625 14.71875 69.140625 
Q 20.953125 74.21875 31.78125 74.21875 
Q 42.671875 74.21875 48.875 69.140625 
Q 55.078125 64.0625 55.078125 55.328125 
Q 55.078125 49.078125 51.53125 44.71875 
Q 48 40.375 41.703125 38.8125 
Q 48.828125 37.15625 52.796875 32.3125 
Q 56.78125 27.484375 56.78125 20.515625 
Q 56.78125 9.90625 50.3125 4.234375 
Q 43.84375 -1.421875 31.78125 -1.421875 
Q 19.734375 -1.421875 13.25 4.234375 
Q 6.78125 9.90625 6.78125 20.515625 
Q 6.78125 27.484375 10.78125 32.3125 
Q 14.796875 37.15625 21.921875 38.8125 
z
M 18.3125 54.390625 
Q 18.3125 48.734375 21.84375 45.5625 
Q 25.390625 42.390625 31.78125 42.390625 
Q 38.140625 42.390625 41.71875 45.5625 
Q 45.3125 48.734375 45.3125 54.390625 
Q 45.3125 60.0625 41.71875 63.234375 
Q 38.140625 66.40625 31.78125 66.40625 
Q 25.390625 66.40625 21.84375 63.234375 
Q 18.3125 60.0625 18.3125 54.390625 
z
" id="DejaVuSans-38"/>
      </defs>
      <g transform="translate(190.697215 273.038252)rotate(-30)scale(0.1 -0.1)">
       <use xlink:href="#DejaVuSans-32"/>
       <use x="63.623047" xlink:href="#DejaVuSans-30"/>
       <use x="127.246094" xlink:href="#DejaVuSans-31"/>
       <use x="190.869141" xlink:href="#DejaVuSans-37"/>
       <use x="254.492188" xlink:href="#DejaVuSans-2d"/>
       <use x="290.576172" xlink:href="#DejaVuSans-30"/>
       <use x="354.199219" xlink:href="#DejaVuSans-38"/>
       <use x="417.822266" xlink:href="#DejaVuSans-2d"/>
       <use x="453.90625" xlink:href="#DejaVuSans-30"/>
       <use x="517.529297" xlink:href="#DejaVuSans-37"/>
      </g>
     </g>
    </g>
    <g id="xtick_5">
     <g id="line2d_5">
      <g>
       <use style="stroke:#000000;stroke-width:0.8;" x="294.672727" xlink:href="#mf4f7986d86" y="230.4"/>
      </g>
     </g>
     <g id="text_5">
      <!-- 2017-08-21 -->
      <g transform="translate(243.303276 273.038252)rotate(-30)scale(0.1 -0.1)">
       <use xlink:href="#DejaVuSans-32"/>
       <use x="63.623047" xlink:href="#DejaVuSans-30"/>
       <use x="127.246094" xlink:href="#DejaVuSans-31"/>
       <use x="190.869141" xlink:href="#DejaVuSans-37"/>
       <use x="254.492188" xlink:href="#DejaVuSans-2d"/>
       <use x="290.576172" xlink:href="#DejaVuSans-30"/>
       <use x="354.199219" xlink:href="#DejaVuSans-38"/>
       <use x="417.822266" xlink:href="#DejaVuSans-2d"/>
       <use x="453.90625" xlink:href="#DejaVuSans-32"/>
       <use x="517.529297" xlink:href="#DejaVuSans-31"/>
      </g>
     </g>
    </g>
    <g id="xtick_6">
     <g id="line2d_6">
      <g>
       <use style="stroke:#000000;stroke-width:0.8;" x="347.278788" xlink:href="#mf4f7986d86" y="230.4"/>
      </g>
     </g>
     <g id="text_6">
      <!-- 2017-09-04 -->
      <defs>
       <path d="M 10.984375 1.515625 
L 10.984375 10.5 
Q 14.703125 8.734375 18.5 7.8125 
Q 22.3125 6.890625 25.984375 6.890625 
Q 35.75 6.890625 40.890625 13.453125 
Q 46.046875 20.015625 46.78125 33.40625 
Q 43.953125 29.203125 39.59375 26.953125 
Q 35.25 24.703125 29.984375 24.703125 
Q 19.046875 24.703125 12.671875 31.3125 
Q 6.296875 37.9375 6.296875 49.421875 
Q 6.296875 60.640625 12.9375 67.421875 
Q 19.578125 74.21875 30.609375 74.21875 
Q 43.265625 74.21875 49.921875 64.515625 
Q 56.59375 54.828125 56.59375 36.375 
Q 56.59375 19.140625 48.40625 8.859375 
Q 40.234375 -1.421875 26.421875 -1.421875 
Q 22.703125 -1.421875 18.890625 -0.6875 
Q 15.09375 0.046875 10.984375 1.515625 
z
M 30.609375 32.421875 
Q 37.25 32.421875 41.125 36.953125 
Q 45.015625 41.5 45.015625 49.421875 
Q 45.015625 57.28125 41.125 61.84375 
Q 37.25 66.40625 30.609375 66.40625 
Q 23.96875 66.40625 20.09375 61.84375 
Q 16.21875 57.28125 16.21875 49.421875 
Q 16.21875 41.5 20.09375 36.953125 
Q 23.96875 32.421875 30.609375 32.421875 
z
" id="DejaVuSans-39"/>
      </defs>
      <g transform="translate(295.909337 273.038252)rotate(-30)scale(0.1 -0.1)">
       <use xlink:href="#DejaVuSans-32"/>
       <use x="63.623047" xlink:href="#DejaVuSans-30"/>
       <use x="127.246094" xlink:href="#DejaVuSans-31"/>
       <use x="190.869141" xlink:href="#DejaVuSans-37"/>
       <use x="254.492188" xlink:href="#DejaVuSans-2d"/>
       <use x="290.576172" xlink:href="#DejaVuSans-30"/>
       <use x="354.199219" xlink:href="#DejaVuSans-39"/>
       <use x="417.822266" xlink:href="#DejaVuSans-2d"/>
       <use x="453.90625" xlink:href="#DejaVuSans-30"/>
       <use x="517.529297" xlink:href="#DejaVuSans-34"/>
      </g>
     </g>
    </g>
    <g id="text_7">
     <!-- Date -->
     <defs>
      <path d="M 64.703125 36.28125 
Q 64.703125 26.3125 60.671875 18.296875 
Q 56.640625 10.296875 49.859375 5.8125 
Q 44.34375 2.34375 38.640625 1.171875 
Q 32.953125 0 24.125 0 
L 7.375 0 
L 7.375 72.703125 
L 23.921875 72.703125 
Q 34.1875 72.703125 40.015625 71.15625 
Q 45.84375 69.625 49.953125 66.9375 
Q 56.984375 62.3125 60.84375 54.609375 
Q 64.703125 46.921875 64.703125 36.28125 
z
M 54.640625 36.421875 
Q 54.640625 44.828125 51.859375 50.75 
Q 49.078125 56.6875 43.609375 60.015625 
Q 39.75 62.359375 35.34375 63.375 
Q 30.953125 64.40625 24.421875 64.40625 
L 17.046875 64.40625 
L 17.046875 8.296875 
L 24.421875 8.296875 
Q 30.859375 8.296875 35.6875 9.328125 
Q 40.53125 10.359375 44.53125 13.140625 
Q 49.5625 16.546875 52.09375 22.234375 
Q 54.640625 27.9375 54.640625 36.421875 
z
" id="Tahoma-44"/>
      <path d="M 37.109375 13.421875 
L 37.109375 28.5625 
Q 33.84375 28.265625 28.828125 27.75 
Q 23.828125 27.25 20.75 26.3125 
Q 17.09375 25.203125 14.703125 22.875 
Q 12.3125 20.5625 12.3125 16.40625 
Q 12.3125 11.71875 14.9375 9.328125 
Q 17.578125 6.9375 22.65625 6.9375 
Q 27 6.9375 30.515625 8.8125 
Q 34.03125 10.6875 37.109375 13.421875 
z
M 37.109375 5.8125 
Q 35.984375 4.984375 34.109375 3.484375 
Q 32.234375 2 30.46875 1.125 
Q 28.03125 -0.140625 25.75 -0.828125 
Q 23.484375 -1.515625 19.390625 -1.515625 
Q 16.015625 -1.515625 12.984375 -0.234375 
Q 9.96875 1.03125 7.671875 3.328125 
Q 5.46875 5.5625 4.140625 8.859375 
Q 2.828125 12.15625 2.828125 15.828125 
Q 2.828125 21.484375 5.21875 25.453125 
Q 7.625 29.4375 12.796875 31.78125 
Q 17.390625 33.890625 23.640625 34.6875 
Q 29.890625 35.5 37.109375 35.890625 
L 37.109375 37.640625 
Q 37.109375 40.875 36.125 42.84375 
Q 35.15625 44.828125 33.40625 45.90625 
Q 31.640625 47.015625 29.09375 47.375 
Q 26.5625 47.75 23.875 47.75 
Q 20.703125 47.75 16.40625 46.796875 
Q 12.109375 45.84375 7.8125 44.046875 
L 7.28125 44.046875 
L 7.28125 53.375 
Q 9.8125 54.109375 14.546875 54.984375 
Q 19.28125 55.859375 23.921875 55.859375 
Q 29.546875 55.859375 33.390625 54.984375 
Q 37.25 54.109375 40.328125 51.8125 
Q 43.3125 49.5625 44.765625 46 
Q 46.234375 42.4375 46.234375 37.3125 
L 46.234375 0 
L 37.109375 0 
z
" id="Tahoma-61"/>
      <path d="M 23.140625 -1.078125 
Q 15.625 -1.078125 11.421875 3.1875 
Q 7.234375 7.46875 7.234375 16.703125 
L 7.234375 46.921875 
L 1.03125 46.921875 
L 1.03125 54.546875 
L 7.234375 54.546875 
L 7.234375 70.21875 
L 16.40625 70.21875 
L 16.40625 54.546875 
L 33.296875 54.546875 
L 33.296875 46.921875 
L 16.40625 46.921875 
L 16.40625 21 
Q 16.40625 16.84375 16.546875 14.59375 
Q 16.703125 12.359375 17.671875 10.40625 
Q 18.5 8.6875 20.359375 7.828125 
Q 22.21875 6.984375 25.390625 6.984375 
Q 27.640625 6.984375 29.734375 7.640625 
Q 31.84375 8.296875 32.765625 8.734375 
L 33.296875 8.734375 
L 33.296875 0.484375 
Q 30.71875 -0.25 28.046875 -0.65625 
Q 25.390625 -1.078125 23.140625 -1.078125 
z
" id="Tahoma-74"/>
      <path d="M 30.328125 -1.265625 
Q 17.28125 -1.265625 10.078125 6.078125 
Q 2.875 13.421875 2.875 26.953125 
Q 2.875 40.28125 9.859375 48.171875 
Q 16.84375 56.0625 28.125 56.0625 
Q 33.203125 56.0625 37.109375 54.59375 
Q 41.015625 53.125 43.953125 50 
Q 46.875 46.875 48.4375 42.359375 
Q 50 37.84375 50 31.296875 
L 50 26.3125 
L 12.203125 26.3125 
Q 12.203125 16.796875 16.984375 11.765625 
Q 21.78125 6.734375 30.21875 6.734375 
Q 33.25 6.734375 36.15625 7.421875 
Q 39.0625 8.109375 41.40625 9.1875 
Q 43.890625 10.296875 45.59375 11.34375 
Q 47.3125 12.40625 48.4375 13.328125 
L 48.96875 13.328125 
L 48.96875 3.328125 
Q 47.359375 2.6875 44.96875 1.734375 
Q 42.578125 0.78125 40.671875 0.25 
Q 37.984375 -0.484375 35.8125 -0.875 
Q 33.640625 -1.265625 30.328125 -1.265625 
z
M 41.0625 33.34375 
Q 40.96875 37.0625 40.1875 39.75 
Q 39.40625 42.4375 37.9375 44.28125 
Q 36.328125 46.34375 33.8125 47.40625 
Q 31.296875 48.484375 27.59375 48.484375 
Q 23.921875 48.484375 21.359375 47.390625 
Q 18.796875 46.296875 16.703125 44.1875 
Q 14.65625 42.046875 13.578125 39.421875 
Q 12.5 36.8125 12.203125 33.34375 
z
" id="Tahoma-65"/>
     </defs>
     <g transform="translate(211.079688 286.437752)scale(0.1 -0.1)">
      <use xlink:href="#Tahoma-44"/>
      <use x="67.822266" xlink:href="#Tahoma-61"/>
      <use x="120.3125" xlink:href="#Tahoma-74"/>
      <use x="153.759766" xlink:href="#Tahoma-65"/>
     </g>
    </g>
   </g>
   <g id="matplotlib.axis_2">
    <g id="ytick_1">
     <g id="line2d_7">
      <defs>
       <path d="M 0 0 
L -3.5 0 
" id="mab1c075ebd" style="stroke:#000000;stroke-width:0.8;"/>
      </defs>
      <g>
       <use style="stroke:#000000;stroke-width:0.8;" x="54" xlink:href="#mab1c075ebd" y="197.429776"/>
      </g>
     </g>
     <g id="text_8">
      <!-- 0.50 -->
      <defs>
       <path d="M 10.6875 12.40625 
L 21 12.40625 
L 21 0 
L 10.6875 0 
z
" id="DejaVuSans-2e"/>
       <path d="M 10.796875 72.90625 
L 49.515625 72.90625 
L 49.515625 64.59375 
L 19.828125 64.59375 
L 19.828125 46.734375 
Q 21.96875 47.46875 24.109375 47.828125 
Q 26.265625 48.1875 28.421875 48.1875 
Q 40.625 48.1875 47.75 41.5 
Q 54.890625 34.8125 54.890625 23.390625 
Q 54.890625 11.625 47.5625 5.09375 
Q 40.234375 -1.421875 26.90625 -1.421875 
Q 22.3125 -1.421875 17.546875 -0.640625 
Q 12.796875 0.140625 7.71875 1.703125 
L 7.71875 11.625 
Q 12.109375 9.234375 16.796875 8.0625 
Q 21.484375 6.890625 26.703125 6.890625 
Q 35.15625 6.890625 40.078125 11.328125 
Q 45.015625 15.765625 45.015625 23.390625 
Q 45.015625 31 40.078125 35.4375 
Q 35.15625 39.890625 26.703125 39.890625 
Q 22.75 39.890625 18.8125 39.015625 
Q 14.890625 38.140625 10.796875 36.28125 
z
" id="DejaVuSans-35"/>
      </defs>
      <g transform="translate(24.734375 201.228995)scale(0.1 -0.1)">
       <use xlink:href="#DejaVuSans-30"/>
       <use x="63.623047" xlink:href="#DejaVuSans-2e"/>
       <use x="95.410156" xlink:href="#DejaVuSans-35"/>
       <use x="159.033203" xlink:href="#DejaVuSans-30"/>
      </g>
     </g>
    </g>
    <g id="ytick_2">
     <g id="line2d_8">
      <g>
       <use style="stroke:#000000;stroke-width:0.8;" x="54" xlink:href="#mab1c075ebd" y="161.795525"/>
      </g>
     </g>
     <g id="text_9">
      <!-- 0.55 -->
      <g transform="translate(24.734375 165.594744)scale(0.1 -0.1)">
       <use xlink:href="#DejaVuSans-30"/>
       <use x="63.623047" xlink:href="#DejaVuSans-2e"/>
       <use x="95.410156" xlink:href="#DejaVuSans-35"/>
       <use x="159.033203" xlink:href="#DejaVuSans-35"/>
      </g>
     </g>
    </g>
    <g id="ytick_3">
     <g id="line2d_9">
      <g>
       <use style="stroke:#000000;stroke-width:0.8;" x="54" xlink:href="#mab1c075ebd" y="126.161274"/>
      </g>
     </g>
     <g id="text_10">
      <!-- 0.60 -->
      <g transform="translate(24.734375 129.960493)scale(0.1 -0.1)">
       <use xlink:href="#DejaVuSans-30"/>
       <use x="63.623047" xlink:href="#DejaVuSans-2e"/>
       <use x="95.410156" xlink:href="#DejaVuSans-36"/>
       <use x="159.033203" xlink:href="#DejaVuSans-30"/>
      </g>
     </g>
    </g>
    <g id="ytick_4">
     <g id="line2d_10">
      <g>
       <use style="stroke:#000000;stroke-width:0.8;" x="54" xlink:href="#mab1c075ebd" y="90.527023"/>
      </g>
     </g>
     <g id="text_11">
      <!-- 0.65 -->
      <g transform="translate(24.734375 94.326242)scale(0.1 -0.1)">
       <use xlink:href="#DejaVuSans-30"/>
       <use x="63.623047" xlink:href="#DejaVuSans-2e"/>
       <use x="95.410156" xlink:href="#DejaVuSans-36"/>
       <use x="159.033203" xlink:href="#DejaVuSans-35"/>
      </g>
     </g>
    </g>
    <g id="ytick_5">
     <g id="line2d_11">
      <g>
       <use style="stroke:#000000;stroke-width:0.8;" x="54" xlink:href="#mab1c075ebd" y="54.892773"/>
      </g>
     </g>
     <g id="text_12">
      <!-- 0.70 -->
      <g transform="translate(24.734375 58.691991)scale(0.1 -0.1)">
       <use xlink:href="#DejaVuSans-30"/>
       <use x="63.623047" xlink:href="#DejaVuSans-2e"/>
       <use x="95.410156" xlink:href="#DejaVuSans-37"/>
       <use x="159.033203" xlink:href="#DejaVuSans-30"/>
      </g>
     </g>
    </g>
    <g id="text_13">
     <!-- Sentiment -->
     <defs>
      <path d="M 27.640625 -1.3125 
Q 19.734375 -1.3125 14.1875 0.3125 
Q 8.640625 1.953125 3.765625 4.34375 
L 3.765625 16.453125 
L 4.4375 16.453125 
Q 9.234375 11.96875 15.28125 9.5 
Q 21.34375 7.03125 26.953125 7.03125 
Q 34.96875 7.03125 39.0625 10.375 
Q 43.171875 13.71875 43.171875 19.1875 
Q 43.171875 23.53125 41.015625 26.265625 
Q 38.875 29 34.1875 30.328125 
Q 30.8125 31.296875 28.03125 31.921875 
Q 25.25 32.5625 21.046875 33.640625 
Q 17.28125 34.625 14.296875 36.125 
Q 11.328125 37.640625 9.03125 40.09375 
Q 6.78125 42.484375 5.53125 45.71875 
Q 4.296875 48.96875 4.296875 53.21875 
Q 4.296875 62.0625 11.171875 68.046875 
Q 18.0625 74.03125 28.765625 74.03125 
Q 34.859375 74.03125 40.296875 72.796875 
Q 45.75 71.578125 50.390625 69.34375 
L 50.390625 57.765625 
L 49.65625 57.765625 
Q 46.1875 60.9375 40.765625 63.296875 
Q 35.359375 65.671875 29.390625 65.671875 
Q 22.65625 65.671875 18.5 62.515625 
Q 14.359375 59.375 14.359375 54.25 
Q 14.359375 49.609375 16.796875 46.875 
Q 19.234375 44.140625 23.875 42.875 
Q 26.953125 42.046875 31.390625 40.984375 
Q 35.84375 39.9375 38.765625 39.0625 
Q 46.296875 36.765625 49.75 32.125 
Q 53.21875 27.484375 53.21875 20.703125 
Q 53.21875 16.453125 51.484375 12.296875 
Q 49.75 8.15625 46.625 5.28125 
Q 43.109375 2.09375 38.6875 0.390625 
Q 34.28125 -1.3125 27.640625 -1.3125 
z
" id="Tahoma-53"/>
      <path d="M 49.515625 0 
L 40.328125 0 
L 40.328125 31.0625 
Q 40.328125 34.8125 39.953125 38.0625 
Q 39.59375 41.3125 38.578125 43.265625 
Q 37.453125 45.3125 35.453125 46.3125 
Q 33.453125 47.3125 29.984375 47.3125 
Q 26.5625 47.3125 22.921875 45.484375 
Q 19.28125 43.65625 15.828125 40.71875 
L 15.828125 0 
L 6.640625 0 
L 6.640625 54.546875 
L 15.828125 54.546875 
L 15.828125 48.484375 
Q 19.921875 52.15625 23.921875 54.109375 
Q 27.9375 56.0625 32.375 56.0625 
Q 40.4375 56.0625 44.96875 50.75 
Q 49.515625 45.453125 49.515625 35.40625 
z
" id="Tahoma-6e"/>
      <path d="M 16.015625 0 
L 6.84375 0 
L 6.84375 54.546875 
L 16.015625 54.546875 
z
M 16.65625 63.671875 
L 6.203125 63.671875 
L 6.203125 73.1875 
L 16.65625 73.1875 
z
" id="Tahoma-69"/>
      <path d="M 68.5625 0 
L 68.5625 31.546875 
Q 68.5625 35.296875 68.265625 38.5 
Q 67.96875 41.703125 67.046875 43.5 
Q 66.0625 45.453125 64.25 46.375 
Q 62.453125 47.3125 59.375 47.3125 
Q 56.546875 47.3125 53.296875 45.578125 
Q 50.046875 43.84375 46.578125 40.578125 
Q 46.625 39.75 46.703125 38.59375 
Q 46.78125 37.453125 46.78125 35.890625 
L 46.78125 0 
L 37.59375 0 
L 37.59375 31.546875 
Q 37.59375 35.296875 37.296875 38.5 
Q 37.015625 41.703125 36.078125 43.5 
Q 35.109375 45.453125 33.296875 46.375 
Q 31.5 47.3125 28.421875 47.3125 
Q 25.4375 47.3125 22.15625 45.453125 
Q 18.890625 43.609375 15.828125 40.71875 
L 15.828125 0 
L 6.640625 0 
L 6.640625 54.546875 
L 15.828125 54.546875 
L 15.828125 48.484375 
Q 19.4375 52.09375 22.96875 54.078125 
Q 26.515625 56.0625 30.765625 56.0625 
Q 35.59375 56.0625 39.328125 53.859375 
Q 43.0625 51.65625 45.015625 46.625 
Q 49.171875 51.265625 53.125 53.65625 
Q 57.078125 56.0625 61.71875 56.0625 
Q 65.234375 56.0625 68.109375 54.953125 
Q 71 53.859375 73.140625 51.421875 
Q 75.34375 48.921875 76.53125 45.203125 
Q 77.734375 41.5 77.734375 35.890625 
L 77.734375 0 
z
" id="Tahoma-6d"/>
     </defs>
     <g transform="translate(18.721875 154.794062)rotate(-90)scale(0.1 -0.1)">
      <use xlink:href="#Tahoma-53"/>
      <use x="55.712891" xlink:href="#Tahoma-65"/>
      <use x="108.349609" xlink:href="#Tahoma-6e"/>
      <use x="164.111328" xlink:href="#Tahoma-74"/>
      <use x="197.558594" xlink:href="#Tahoma-69"/>
      <use x="220.410156" xlink:href="#Tahoma-6d"/>
      <use x="304.394531" xlink:href="#Tahoma-65"/>
      <use x="357.03125" xlink:href="#Tahoma-6e"/>
      <use x="412.792969" xlink:href="#Tahoma-74"/>
     </g>
    </g>
   </g>
   <g id="line2d_12">
    <path clip-path="url(#p6dffbdb6c5)" d="M 69.218182 177.539324 
L 72.975758 176.131555 
L 76.733333 116.64684 
L 80.490909 148.837616 
L 84.248485 196.218184 
L 88.006061 173.178527 
L 91.763636 183.206828 
L 95.521212 174.287505 
L 99.278788 155.779353 
L 103.036364 154.482959 
L 106.793939 198.744693 
L 110.551515 170.795929 
L 114.309091 43.461818 
L 118.066667 153.446628 
L 121.824242 152.653754 
L 125.581818 178.111403 
L 129.339394 145.557132 
L 133.09697 191.869822 
L 136.854545 181.918146 
L 140.612121 158.463638 
L 144.369697 165.6724 
L 148.127273 194.250174 
L 151.884848 187.920862 
L 155.642424 134.450199 
L 159.4 188.713484 
L 163.157576 184.972701 
L 166.915152 194.214849 
L 170.672727 176.217759 
L 174.430303 178.36128 
L 178.187879 158.20512 
L 181.945455 145.998898 
L 185.70303 184.033441 
L 189.460606 171.389362 
L 193.218182 216.830768 
L 196.975758 205.478167 
L 200.733333 203.225588 
L 204.490909 200.252912 
L 208.248485 149.684538 
L 212.006061 192.410867 
L 215.763636 185.439786 
L 219.521212 173.316373 
L 223.278788 160.34606 
L 227.036364 168.507643 
L 230.793939 132.354633 
L 234.551515 161.36767 
L 238.309091 131.492383 
L 242.066667 133.579557 
L 245.824242 149.825005 
L 249.581818 168.853989 
L 253.339394 162.003912 
L 257.09697 162.246591 
L 260.854545 202.486167 
L 264.612121 199.783425 
L 268.369697 173.442405 
L 272.127273 167.466075 
L 275.884848 165.289079 
L 279.642424 150.777693 
L 283.4 169.3595 
L 287.157576 144.744728 
L 290.915152 183.676205 
L 294.672727 121.668922 
L 298.430303 151.508316 
L 302.187879 144.375264 
L 305.945455 157.261703 
L 309.70303 194.41312 
L 313.460606 193.742318 
L 317.218182 164.647968 
L 320.975758 169.627229 
L 324.733333 187.999701 
L 328.490909 176.941518 
L 332.248485 173.582107 
L 336.006061 172.97232 
L 339.763636 160.199962 
L 343.521212 192.941835 
L 347.278788 137.005061 
L 351.036364 195.420035 
L 354.793939 221.498182 
L 358.551515 215.770029 
L 362.309091 190.807481 
L 366.066667 162.609092 
L 369.824242 169.148624 
L 373.581818 120.524556 
" style="fill:none;stroke:#1f77b4;stroke-linecap:square;stroke-width:1.5;"/>
   </g>
   <g id="patch_3">
    <path d="M 54 230.4 
L 54 34.56 
" style="fill:none;stroke:#000000;stroke-linecap:square;stroke-linejoin:miter;stroke-width:0.8;"/>
   </g>
   <g id="patch_4">
    <path d="M 388.8 230.4 
L 388.8 34.56 
" style="fill:none;stroke:#000000;stroke-linecap:square;stroke-linejoin:miter;stroke-width:0.8;"/>
   </g>
   <g id="patch_5">
    <path d="M 54 230.4 
L 388.8 230.4 
" style="fill:none;stroke:#000000;stroke-linecap:square;stroke-linejoin:miter;stroke-width:0.8;"/>
   </g>
   <g id="patch_6">
    <path d="M 54 34.56 
L 388.8 34.56 
" style="fill:none;stroke:#000000;stroke-linecap:square;stroke-linejoin:miter;stroke-width:0.8;"/>
   </g>
   <g id="text_14">
    <!-- Congress Mood By Twitter -->
    <defs>
     <path d="M 64.40625 67.28125 
L 64.40625 56.890625 
Q 59.421875 61.53125 53.78125 63.8125 
Q 48.140625 66.109375 41.796875 66.109375 
Q 29.296875 66.109375 22.65625 58.46875 
Q 16.015625 50.828125 16.015625 36.375 
Q 16.015625 21.96875 22.65625 14.328125 
Q 29.296875 6.6875 41.796875 6.6875 
Q 48.140625 6.6875 53.78125 8.984375 
Q 59.421875 11.28125 64.40625 15.921875 
L 64.40625 5.609375 
Q 59.234375 2.09375 53.4375 0.328125 
Q 47.65625 -1.421875 41.21875 -1.421875 
Q 24.65625 -1.421875 15.125 8.703125 
Q 5.609375 18.84375 5.609375 36.375 
Q 5.609375 53.953125 15.125 64.078125 
Q 24.65625 74.21875 41.21875 74.21875 
Q 47.75 74.21875 53.53125 72.484375 
Q 59.328125 70.75 64.40625 67.28125 
z
" id="DejaVuSans-43"/>
     <path d="M 30.609375 48.390625 
Q 23.390625 48.390625 19.1875 42.75 
Q 14.984375 37.109375 14.984375 27.296875 
Q 14.984375 17.484375 19.15625 11.84375 
Q 23.34375 6.203125 30.609375 6.203125 
Q 37.796875 6.203125 41.984375 11.859375 
Q 46.1875 17.53125 46.1875 27.296875 
Q 46.1875 37.015625 41.984375 42.703125 
Q 37.796875 48.390625 30.609375 48.390625 
z
M 30.609375 56 
Q 42.328125 56 49.015625 48.375 
Q 55.71875 40.765625 55.71875 27.296875 
Q 55.71875 13.875 49.015625 6.21875 
Q 42.328125 -1.421875 30.609375 -1.421875 
Q 18.84375 -1.421875 12.171875 6.21875 
Q 5.515625 13.875 5.515625 27.296875 
Q 5.515625 40.765625 12.171875 48.375 
Q 18.84375 56 30.609375 56 
z
" id="DejaVuSans-6f"/>
     <path d="M 54.890625 33.015625 
L 54.890625 0 
L 45.90625 0 
L 45.90625 32.71875 
Q 45.90625 40.484375 42.875 44.328125 
Q 39.84375 48.1875 33.796875 48.1875 
Q 26.515625 48.1875 22.3125 43.546875 
Q 18.109375 38.921875 18.109375 30.90625 
L 18.109375 0 
L 9.078125 0 
L 9.078125 54.6875 
L 18.109375 54.6875 
L 18.109375 46.1875 
Q 21.34375 51.125 25.703125 53.5625 
Q 30.078125 56 35.796875 56 
Q 45.21875 56 50.046875 50.171875 
Q 54.890625 44.34375 54.890625 33.015625 
z
" id="DejaVuSans-6e"/>
     <path d="M 45.40625 27.984375 
Q 45.40625 37.75 41.375 43.109375 
Q 37.359375 48.484375 30.078125 48.484375 
Q 22.859375 48.484375 18.828125 43.109375 
Q 14.796875 37.75 14.796875 27.984375 
Q 14.796875 18.265625 18.828125 12.890625 
Q 22.859375 7.515625 30.078125 7.515625 
Q 37.359375 7.515625 41.375 12.890625 
Q 45.40625 18.265625 45.40625 27.984375 
z
M 54.390625 6.78125 
Q 54.390625 -7.171875 48.1875 -13.984375 
Q 42 -20.796875 29.203125 -20.796875 
Q 24.46875 -20.796875 20.265625 -20.09375 
Q 16.0625 -19.390625 12.109375 -17.921875 
L 12.109375 -9.1875 
Q 16.0625 -11.328125 19.921875 -12.34375 
Q 23.78125 -13.375 27.78125 -13.375 
Q 36.625 -13.375 41.015625 -8.765625 
Q 45.40625 -4.15625 45.40625 5.171875 
L 45.40625 9.625 
Q 42.625 4.78125 38.28125 2.390625 
Q 33.9375 0 27.875 0 
Q 17.828125 0 11.671875 7.65625 
Q 5.515625 15.328125 5.515625 27.984375 
Q 5.515625 40.671875 11.671875 48.328125 
Q 17.828125 56 27.875 56 
Q 33.9375 56 38.28125 53.609375 
Q 42.625 51.21875 45.40625 46.390625 
L 45.40625 54.6875 
L 54.390625 54.6875 
z
" id="DejaVuSans-67"/>
     <path d="M 41.109375 46.296875 
Q 39.59375 47.171875 37.8125 47.578125 
Q 36.03125 48 33.890625 48 
Q 26.265625 48 22.1875 43.046875 
Q 18.109375 38.09375 18.109375 28.8125 
L 18.109375 0 
L 9.078125 0 
L 9.078125 54.6875 
L 18.109375 54.6875 
L 18.109375 46.1875 
Q 20.953125 51.171875 25.484375 53.578125 
Q 30.03125 56 36.53125 56 
Q 37.453125 56 38.578125 55.875 
Q 39.703125 55.765625 41.0625 55.515625 
z
" id="DejaVuSans-72"/>
     <path d="M 56.203125 29.59375 
L 56.203125 25.203125 
L 14.890625 25.203125 
Q 15.484375 15.921875 20.484375 11.0625 
Q 25.484375 6.203125 34.421875 6.203125 
Q 39.59375 6.203125 44.453125 7.46875 
Q 49.3125 8.734375 54.109375 11.28125 
L 54.109375 2.78125 
Q 49.265625 0.734375 44.1875 -0.34375 
Q 39.109375 -1.421875 33.890625 -1.421875 
Q 20.796875 -1.421875 13.15625 6.1875 
Q 5.515625 13.8125 5.515625 26.8125 
Q 5.515625 40.234375 12.765625 48.109375 
Q 20.015625 56 32.328125 56 
Q 43.359375 56 49.78125 48.890625 
Q 56.203125 41.796875 56.203125 29.59375 
z
M 47.21875 32.234375 
Q 47.125 39.59375 43.09375 43.984375 
Q 39.0625 48.390625 32.421875 48.390625 
Q 24.90625 48.390625 20.390625 44.140625 
Q 15.875 39.890625 15.1875 32.171875 
z
" id="DejaVuSans-65"/>
     <path d="M 44.28125 53.078125 
L 44.28125 44.578125 
Q 40.484375 46.53125 36.375 47.5 
Q 32.28125 48.484375 27.875 48.484375 
Q 21.1875 48.484375 17.84375 46.4375 
Q 14.5 44.390625 14.5 40.28125 
Q 14.5 37.15625 16.890625 35.375 
Q 19.28125 33.59375 26.515625 31.984375 
L 29.59375 31.296875 
Q 39.15625 29.25 43.1875 25.515625 
Q 47.21875 21.78125 47.21875 15.09375 
Q 47.21875 7.46875 41.1875 3.015625 
Q 35.15625 -1.421875 24.609375 -1.421875 
Q 20.21875 -1.421875 15.453125 -0.5625 
Q 10.6875 0.296875 5.421875 2 
L 5.421875 11.28125 
Q 10.40625 8.6875 15.234375 7.390625 
Q 20.0625 6.109375 24.8125 6.109375 
Q 31.15625 6.109375 34.5625 8.28125 
Q 37.984375 10.453125 37.984375 14.40625 
Q 37.984375 18.0625 35.515625 20.015625 
Q 33.0625 21.96875 24.703125 23.78125 
L 21.578125 24.515625 
Q 13.234375 26.265625 9.515625 29.90625 
Q 5.8125 33.546875 5.8125 39.890625 
Q 5.8125 47.609375 11.28125 51.796875 
Q 16.75 56 26.8125 56 
Q 31.78125 56 36.171875 55.265625 
Q 40.578125 54.546875 44.28125 53.078125 
z
" id="DejaVuSans-73"/>
     <path id="DejaVuSans-20"/>
     <path d="M 9.8125 72.90625 
L 24.515625 72.90625 
L 43.109375 23.296875 
L 61.8125 72.90625 
L 76.515625 72.90625 
L 76.515625 0 
L 66.890625 0 
L 66.890625 64.015625 
L 48.09375 14.015625 
L 38.1875 14.015625 
L 19.390625 64.015625 
L 19.390625 0 
L 9.8125 0 
z
" id="DejaVuSans-4d"/>
     <path d="M 45.40625 46.390625 
L 45.40625 75.984375 
L 54.390625 75.984375 
L 54.390625 0 
L 45.40625 0 
L 45.40625 8.203125 
Q 42.578125 3.328125 38.25 0.953125 
Q 33.9375 -1.421875 27.875 -1.421875 
Q 17.96875 -1.421875 11.734375 6.484375 
Q 5.515625 14.40625 5.515625 27.296875 
Q 5.515625 40.1875 11.734375 48.09375 
Q 17.96875 56 27.875 56 
Q 33.9375 56 38.25 53.625 
Q 42.578125 51.265625 45.40625 46.390625 
z
M 14.796875 27.296875 
Q 14.796875 17.390625 18.875 11.75 
Q 22.953125 6.109375 30.078125 6.109375 
Q 37.203125 6.109375 41.296875 11.75 
Q 45.40625 17.390625 45.40625 27.296875 
Q 45.40625 37.203125 41.296875 42.84375 
Q 37.203125 48.484375 30.078125 48.484375 
Q 22.953125 48.484375 18.875 42.84375 
Q 14.796875 37.203125 14.796875 27.296875 
z
" id="DejaVuSans-64"/>
     <path d="M 19.671875 34.8125 
L 19.671875 8.109375 
L 35.5 8.109375 
Q 43.453125 8.109375 47.28125 11.40625 
Q 51.125 14.703125 51.125 21.484375 
Q 51.125 28.328125 47.28125 31.5625 
Q 43.453125 34.8125 35.5 34.8125 
z
M 19.671875 64.796875 
L 19.671875 42.828125 
L 34.28125 42.828125 
Q 41.5 42.828125 45.03125 45.53125 
Q 48.578125 48.25 48.578125 53.8125 
Q 48.578125 59.328125 45.03125 62.0625 
Q 41.5 64.796875 34.28125 64.796875 
z
M 9.8125 72.90625 
L 35.015625 72.90625 
Q 46.296875 72.90625 52.390625 68.21875 
Q 58.5 63.53125 58.5 54.890625 
Q 58.5 48.1875 55.375 44.234375 
Q 52.25 40.28125 46.1875 39.3125 
Q 53.46875 37.75 57.5 32.78125 
Q 61.53125 27.828125 61.53125 20.40625 
Q 61.53125 10.640625 54.890625 5.3125 
Q 48.25 0 35.984375 0 
L 9.8125 0 
z
" id="DejaVuSans-42"/>
     <path d="M 32.171875 -5.078125 
Q 28.375 -14.84375 24.75 -17.8125 
Q 21.140625 -20.796875 15.09375 -20.796875 
L 7.90625 -20.796875 
L 7.90625 -13.28125 
L 13.1875 -13.28125 
Q 16.890625 -13.28125 18.9375 -11.515625 
Q 21 -9.765625 23.484375 -3.21875 
L 25.09375 0.875 
L 2.984375 54.6875 
L 12.5 54.6875 
L 29.59375 11.921875 
L 46.6875 54.6875 
L 56.203125 54.6875 
z
" id="DejaVuSans-79"/>
     <path d="M -0.296875 72.90625 
L 61.375 72.90625 
L 61.375 64.59375 
L 35.5 64.59375 
L 35.5 0 
L 25.59375 0 
L 25.59375 64.59375 
L -0.296875 64.59375 
z
" id="DejaVuSans-54"/>
     <path d="M 4.203125 54.6875 
L 13.1875 54.6875 
L 24.421875 12.015625 
L 35.59375 54.6875 
L 46.1875 54.6875 
L 57.421875 12.015625 
L 68.609375 54.6875 
L 77.59375 54.6875 
L 63.28125 0 
L 52.6875 0 
L 40.921875 44.828125 
L 29.109375 0 
L 18.5 0 
z
" id="DejaVuSans-77"/>
     <path d="M 9.421875 54.6875 
L 18.40625 54.6875 
L 18.40625 0 
L 9.421875 0 
z
M 9.421875 75.984375 
L 18.40625 75.984375 
L 18.40625 64.59375 
L 9.421875 64.59375 
z
" id="DejaVuSans-69"/>
     <path d="M 18.3125 70.21875 
L 18.3125 54.6875 
L 36.8125 54.6875 
L 36.8125 47.703125 
L 18.3125 47.703125 
L 18.3125 18.015625 
Q 18.3125 11.328125 20.140625 9.421875 
Q 21.96875 7.515625 27.59375 7.515625 
L 36.8125 7.515625 
L 36.8125 0 
L 27.59375 0 
Q 17.1875 0 13.234375 3.875 
Q 9.28125 7.765625 9.28125 18.015625 
L 9.28125 47.703125 
L 2.6875 47.703125 
L 2.6875 54.6875 
L 9.28125 54.6875 
L 9.28125 70.21875 
z
" id="DejaVuSans-74"/>
    </defs>
    <g transform="translate(142.716563 28.56)scale(0.12 -0.12)">
     <use xlink:href="#DejaVuSans-43"/>
     <use x="69.824219" xlink:href="#DejaVuSans-6f"/>
     <use x="131.005859" xlink:href="#DejaVuSans-6e"/>
     <use x="194.384766" xlink:href="#DejaVuSans-67"/>
     <use x="257.861328" xlink:href="#DejaVuSans-72"/>
     <use x="298.943359" xlink:href="#DejaVuSans-65"/>
     <use x="360.466797" xlink:href="#DejaVuSans-73"/>
     <use x="412.566406" xlink:href="#DejaVuSans-73"/>
     <use x="464.666016" xlink:href="#DejaVuSans-20"/>
     <use x="496.453125" xlink:href="#DejaVuSans-4d"/>
     <use x="582.732422" xlink:href="#DejaVuSans-6f"/>
     <use x="643.914062" xlink:href="#DejaVuSans-6f"/>
     <use x="705.095703" xlink:href="#DejaVuSans-64"/>
     <use x="768.572266" xlink:href="#DejaVuSans-20"/>
     <use x="800.359375" xlink:href="#DejaVuSans-42"/>
     <use x="868.962891" xlink:href="#DejaVuSans-79"/>
     <use x="928.142578" xlink:href="#DejaVuSans-20"/>
     <use x="959.929688" xlink:href="#DejaVuSans-54"/>
     <use x="1020.763672" xlink:href="#DejaVuSans-77"/>
     <use x="1102.550781" xlink:href="#DejaVuSans-69"/>
     <use x="1130.333984" xlink:href="#DejaVuSans-74"/>
     <use x="1169.542969" xlink:href="#DejaVuSans-74"/>
     <use x="1208.751953" xlink:href="#DejaVuSans-65"/>
     <use x="1270.275391" xlink:href="#DejaVuSans-72"/>
    </g>
   </g>
  </g>
 </g>
 <defs>
  <clipPath id="p6dffbdb6c5">
   <rect height="195.84" width="334.8" x="54" y="34.56"/>
  </clipPath>
 </defs>
</svg>
